<?xml version="1.0" encoding="utf-8" ?>
<svg xmlns="http://www.w3.org/2000/svg" xmlns:xlink="http://www.w3.org/1999/xlink" width="724" height="724">
	<path fill="#262A5C" d="M345.932 9.33826C346.226 9.30816 346.519 9.27455 346.813 9.25403C363.584 8.08487 384.829 9.32423 401.556 11.1557Q407.405 11.8016 413.229 12.6385Q419.054 13.4755 424.848 14.5025Q430.642 15.5295 436.4 16.7456Q442.157 17.9616 447.871 19.3654Q453.586 20.7691 459.251 22.3591Q464.917 23.9491 470.527 25.7235Q476.138 27.498 481.687 29.4551Q487.237 31.4122 492.719 33.5497Q498.202 35.6873 503.611 38.0031Q509.021 40.319 514.352 42.8105Q519.683 45.3021 524.929 47.9667Q530.176 50.6313 535.332 53.4662Q540.489 56.301 545.55 59.3031Q550.611 62.3051 555.571 65.4711Q560.531 68.6371 565.385 71.9637Q570.239 75.2903 574.981 78.7739C584.45 85.7191 593.104 93.2625 601.991 100.913C611.797 109.354 620.818 119.217 629.4 128.881Q631.759 131.51 634.063 134.186Q636.368 136.863 638.618 139.585Q640.868 142.307 643.062 145.075Q645.257 147.842 647.395 150.654Q649.532 153.465 651.613 156.319Q653.693 159.173 655.715 162.069Q657.738 164.965 659.701 167.901Q661.664 170.837 663.567 173.812Q665.47 176.788 667.312 179.801Q669.155 182.814 670.936 185.864Q672.717 188.914 674.435 192Q676.154 195.085 677.81 198.205Q679.466 201.324 681.058 204.477Q682.651 207.63 684.179 210.814Q685.707 213.998 687.17 217.213Q688.633 220.427 690.031 223.671Q691.429 226.914 692.76 230.185Q694.092 233.457 695.357 236.754Q696.622 240.052 697.82 243.374Q699.018 246.697 700.149 250.043Q701.279 253.389 702.342 256.757Q703.404 260.125 704.398 263.515Q705.392 266.904 706.317 270.312Q707.242 273.721 708.097 277.148Q708.953 280.574 709.739 284.018Q710.525 287.461 711.241 290.919Q711.958 294.378 712.604 297.85Q713.25 301.323 713.825 304.807Q714.4 308.292 714.905 311.788Q715.409 315.283 715.843 318.788Q716.277 322.294 716.639 325.807Q717.002 329.32 717.293 332.84C723.978 422.928 694.177 517.81 635.077 586.447Q632.863 589.055 630.599 591.62Q628.334 594.184 626.02 596.704Q623.706 599.223 621.343 601.697Q618.98 604.171 616.57 606.598Q614.159 609.026 611.701 611.405Q609.243 613.785 606.74 616.116Q604.236 618.447 601.687 620.729Q599.138 623.011 596.545 625.242Q593.952 627.474 591.316 629.654Q588.68 631.835 586.001 633.963Q583.323 636.092 580.604 638.168Q577.884 640.243 575.125 642.266Q572.366 644.288 569.567 646.256Q566.769 648.223 563.932 650.136Q561.096 652.049 558.223 653.906Q555.35 655.763 552.441 657.564Q549.532 659.364 546.589 661.107Q543.645 662.851 540.668 664.536Q537.691 666.222 534.682 667.849Q531.672 669.475 528.631 671.043Q525.591 672.611 522.52 674.119Q519.449 675.627 516.35 677.075Q513.25 678.523 510.123 679.91Q506.996 681.296 503.842 682.622Q500.688 683.948 497.509 685.211Q494.33 686.475 491.127 687.676Q487.923 688.877 484.697 690.016Q481.471 691.154 478.223 692.229Q474.976 693.304 471.708 694.316Q468.44 695.327 465.152 696.275Q461.865 697.222 458.56 698.105Q455.255 698.988 451.933 699.806C429.363 705.249 406.615 708.113 383.497 709.836C369.952 710.35 356.113 710.638 342.584 709.744Q339.042 709.507 335.505 709.201Q331.968 708.894 328.437 708.518Q324.907 708.142 321.385 707.696Q317.862 707.251 314.35 706.736Q310.837 706.221 307.335 705.637Q303.833 705.054 300.343 704.401Q296.853 703.748 293.377 703.027Q289.901 702.306 286.44 701.516Q282.978 700.726 279.533 699.869Q276.088 699.011 272.66 698.086Q269.233 697.16 265.824 696.168Q262.415 695.175 259.027 694.116Q255.638 693.056 252.271 691.93Q248.904 690.804 245.56 689.612Q242.216 688.42 238.896 687.162Q235.576 685.904 232.281 684.581Q228.987 683.258 225.719 681.871Q222.451 680.483 219.211 679.032Q215.971 677.58 212.76 676.065Q209.549 674.55 206.369 672.972Q203.189 671.394 200.04 669.754Q196.891 668.113 193.776 666.411Q190.66 664.709 187.578 662.946Q184.497 661.183 181.451 659.36Q178.404 657.536 175.394 655.653Q172.385 653.77 169.412 651.829Q166.44 649.887 163.507 647.887Q160.574 645.886 157.68 643.829Q154.787 641.772 151.935 639.658Q149.082 637.544 146.272 635.374Q143.462 633.204 140.695 630.979Q137.928 628.755 135.206 626.476C121.628 615.125 109.264 602.21 97.7159 588.826Q95.4111 586.179 93.1593 583.486Q90.9075 580.794 88.7094 578.057Q86.5114 575.32 84.368 572.541Q82.2247 569.761 80.1368 566.939Q78.049 564.118 76.0175 561.255Q73.986 558.393 72.0116 555.491Q70.0372 552.589 68.1208 549.648Q66.2043 546.707 64.3465 543.729Q62.4887 540.751 60.6903 537.736Q58.8918 534.722 57.1535 531.673Q55.4152 528.623 53.7377 525.54Q52.0602 522.457 50.4441 519.341Q48.828 516.225 47.2739 513.078Q45.7199 509.93 44.2286 506.753Q42.7373 503.575 41.3092 500.369Q39.8811 497.163 38.5169 493.928Q37.1527 490.694 35.8528 487.434Q34.5529 484.173 33.318 480.888Q32.083 477.602 30.9134 474.293Q29.7437 470.983 28.6399 467.651Q27.5361 464.319 26.4986 460.966Q25.4611 457.613 24.4902 454.24Q23.5193 450.866 22.6155 447.475Q21.7117 444.083 20.8752 440.674Q20.0388 437.265 19.2701 433.84Q18.5014 430.415 17.8008 426.976Q17.1001 423.536 16.4677 420.084Q15.8354 416.631 15.2716 413.167Q14.7078 409.702 14.2128 406.227Q13.7178 402.752 13.2917 399.268Q12.8657 395.784 12.5087 392.292Q12.1518 388.8 11.8642 385.302C11.0177 375.816 10.9651 366.377 10.9854 356.861Q11.0117 353.096 11.1199 349.333Q11.228 345.57 11.4178 341.81Q11.6076 338.05 11.8791 334.295Q12.1506 330.54 12.5035 326.792Q12.8565 323.044 13.2908 319.304Q13.7251 315.565 14.2406 311.835Q14.756 308.106 15.3523 304.389Q15.9487 300.672 16.6256 296.968Q17.3025 293.265 18.0598 289.577Q18.817 285.889 19.6541 282.219Q20.4913 278.548 21.408 274.897Q22.3247 271.245 23.3205 267.615Q24.3163 263.984 25.3907 260.376Q26.4651 256.768 27.6177 253.184Q28.7702 249.6 30.0003 246.042Q31.2305 242.484 32.5376 238.953Q33.8447 235.423 35.2283 231.921Q36.6118 228.42 38.071 224.95Q39.5303 221.479 41.0646 218.041Q42.5989 214.603 44.2075 211.2Q45.8161 207.796 47.4983 204.428Q49.1804 201.06 50.9354 197.729Q52.6903 194.398 54.5172 191.107Q56.344 187.815 58.242 184.563Q60.1399 181.312 62.1081 178.103Q64.0762 174.894 66.1136 171.728Q68.151 168.562 70.2566 165.441Q72.3623 162.32 74.5352 159.246Q76.7082 156.172 78.9474 153.145Q81.1867 150.119 83.4911 147.142Q85.7956 144.165 88.1642 141.238Q90.5327 138.312 92.9643 135.438Q95.1984 132.77 97.4846 130.147Q99.7709 127.524 102.108 124.946Q104.446 122.368 106.834 119.837Q109.221 117.306 111.658 114.822Q114.096 112.338 116.581 109.903Q119.067 107.468 121.6 105.082Q124.133 102.696 126.713 100.361Q129.292 98.0252 131.917 95.741Q134.542 93.4569 137.212 91.2248Q139.882 88.9928 142.595 86.8138Q145.308 84.6348 148.063 82.5097Q150.818 80.3845 153.615 78.314Q156.412 76.2436 159.249 74.2286Q162.086 72.2136 164.962 70.2549Q167.838 68.2962 170.752 66.3945Q173.666 64.4929 176.617 62.649Q179.568 60.8051 182.555 59.0196Q185.542 57.2342 188.563 55.508Q191.585 53.7817 194.639 52.1153Q197.694 50.4489 200.781 48.843Q203.868 47.2371 206.986 45.6923Q210.104 44.1475 213.252 42.6644Q216.4 41.1814 219.577 39.7606Q222.753 38.3398 225.957 36.9818Q229.161 35.6239 232.391 34.3293Q235.621 33.0347 238.875 31.804Q242.13 30.5733 245.409 29.407Q248.687 28.2406 251.988 27.139Q255.289 26.0375 258.611 25.0011Q261.932 23.9648 265.274 22.9941Q268.616 22.0234 271.976 21.1187Q275.336 20.214 278.713 19.3757Q304.135 13.241 330.144 10.5133C335.39 9.96235 340.675 9.80767 345.932 9.33826Z"/>
	<path fill="#05DDF8" d="M57.0534 269.874C61.9991 250.509 70.1669 231.429 79.5043 213.791Q82.111 208.838 84.887 203.978Q87.6631 199.118 90.6052 194.356Q93.5473 189.595 96.6519 184.938Q99.7565 180.281 103.02 175.733Q106.283 171.186 109.702 166.754Q113.12 162.323 116.69 158.011Q120.259 153.7 123.975 149.514Q127.691 145.329 131.549 141.274Q135.407 137.219 139.403 133.3Q143.399 129.381 147.527 125.601Q151.656 121.822 155.913 118.188Q160.169 114.554 164.549 111.068Q168.928 107.583 173.425 104.251Q177.922 100.919 182.532 97.7436Q187.141 94.5686 191.857 91.5546Q196.574 88.5405 201.391 85.691Q204.759 83.7023 208.174 81.7969Q211.59 79.8915 215.051 78.0706Q218.512 76.2497 222.017 74.5144Q225.522 72.7792 229.068 71.1305Q232.615 69.4819 236.201 67.9209Q239.787 66.36 243.41 64.8876Q247.034 63.4152 250.692 62.0323Q254.35 60.6494 258.041 59.3568Q261.733 58.0642 265.455 56.8627Q269.176 55.6613 272.927 54.5516Q276.677 53.4419 280.453 52.4248Q284.23 51.4076 288.03 50.4835Q291.83 49.5595 295.652 48.7291Q299.474 47.8987 303.315 47.1625Q307.156 46.4262 311.014 45.7846Q314.872 45.143 318.745 44.5964Q322.617 44.0498 326.502 43.5985Q330.387 43.1472 334.282 42.7915Q338.177 42.4358 342.079 42.1759Q345.981 41.9161 349.889 41.7522Q353.796 41.5883 357.707 41.5205Q361.617 41.4526 365.528 41.4809Q369.439 41.5092 373.348 41.6336Q377.257 41.758 381.162 41.9784Q385.067 42.1988 388.965 42.5151Q392.863 42.8314 396.752 43.2434Q400.642 43.6554 404.519 44.1629Q408.397 44.6703 412.262 45.2729Q416.126 45.8755 419.974 46.5728Q423.823 47.2702 427.653 48.0619Q431.483 48.8537 435.292 49.7393Q439.102 50.6249 442.888 51.6038Q446.771 52.6097 450.627 53.7109Q454.484 54.8121 458.312 56.008Q462.14 57.2038 465.938 58.4937Q469.736 59.7835 473.5 61.1664Q477.265 62.5494 480.995 64.0247Q484.724 65.5 488.416 67.0667Q492.108 68.6334 495.761 70.2905Q499.413 71.9477 503.023 73.6943Q506.634 75.441 510.2 77.276Q513.767 79.111 517.287 81.0334Q520.807 82.9557 524.278 84.9641Q527.75 86.9726 531.171 89.0659Q534.592 91.1593 537.96 93.3363Q541.329 95.5132 544.643 97.7725Q547.957 100.032 551.214 102.372Q554.471 104.712 557.669 107.132Q560.868 109.552 564.006 112.05Q567.144 114.547 570.219 117.122Q573.295 119.696 576.306 122.345Q579.317 124.995 582.262 127.718Q585.207 130.44 588.084 133.235Q590.961 136.029 593.768 138.893Q596.576 141.758 599.312 144.691Q602.047 147.623 604.71 150.623Q607.373 153.622 609.961 156.686Q612.549 159.75 615.061 162.876Q617.573 166.003 620.007 169.191Q622.441 172.378 624.796 175.625Q627.151 178.871 629.425 182.175Q631.699 185.479 633.891 188.837Q636.084 192.196 638.192 195.608Q640.301 199.019 642.325 202.482Q644.324 205.885 646.236 209.338Q648.149 212.791 649.974 216.292Q651.798 219.792 653.534 223.337Q655.269 226.882 656.915 230.47Q658.56 234.058 660.114 237.686Q661.668 241.314 663.13 244.981Q664.592 248.647 665.961 252.349Q667.33 256.051 668.605 259.787Q669.88 263.523 671.06 267.289Q672.241 271.056 673.325 274.851Q674.41 278.646 675.398 282.468Q676.386 286.289 677.278 290.134Q678.169 293.98 678.964 297.846Q679.758 301.712 680.454 305.598Q681.15 309.483 681.747 313.385Q682.345 317.286 682.844 321.202C684.049 330.345 685.302 339.882 685.159 349.118C686.202 358.184 685.426 368.166 684.775 377.265C682.282 412.096 675.234 446.138 662.219 478.603Q657.046 491.323 650.978 503.64C648.714 508.166 646.068 512.487 643.905 517.077L643.168 517.321L643.672 517.541L643.597 517.676L643.177 517.47L643.514 517.812L643.19 517.902C642.361 515.15 643.146 511.383 643.245 508.528C643.383 504.543 643.174 500.512 643.05 496.526C642.724 486.057 641.526 476.241 631.234 470.797C623.281 466.59 609.949 468.902 600.875 468.459C601.083 458.026 601.029 448.795 593.397 440.777C589.369 436.546 584.244 434.1 578.345 434.03C574.696 433.986 568.331 434.943 565.025 433.893C561.142 429.442 556.729 425.063 551.253 422.657L551.601 422.372C551.295 421.26 549.205 419.908 548.234 419.101C530.836 404.641 508.507 397.472 489.003 386.506C475.022 378.645 457.058 368.421 444.583 358.585Q430.129 349.813 416.443 339.885C416.423 339.748 416.4 339.61 416.382 339.472C415.679 334.283 415.266 305.446 416.26 301.679C417.69 296.262 421.224 291.157 423.531 286.032Q426.486 279.319 428.748 272.343Q431.011 265.366 432.558 258.197Q435.719 243.694 437.001 228.906C438.301 213.824 438.131 198.559 438.095 183.432C438.057 167.008 439.301 148.65 434.512 132.752Q434.05 131.199 433.527 129.665Q433.004 128.132 432.421 126.62Q431.839 125.108 431.197 123.62Q430.555 122.132 429.856 120.67Q429.156 119.209 428.4 117.776Q427.643 116.343 426.831 114.941Q426.019 113.539 425.153 112.17Q424.286 110.8 423.366 109.466Q422.447 108.132 421.475 106.835Q420.504 105.539 419.482 104.281Q418.461 103.023 417.391 101.806Q416.32 100.59 415.203 99.4161Q414.086 98.2424 412.924 97.1135Q411.761 95.9846 410.556 94.9023Q409.35 93.8199 408.102 92.7858Q406.855 91.7516 405.568 90.7672C382.293 72.838 353.2 67.5125 324.567 71.3751Q323.344 71.5343 322.125 71.7234Q320.906 71.9126 319.692 72.1314Q318.479 72.3503 317.27 72.5989Q316.062 72.8474 314.861 73.1255Q313.659 73.4035 312.465 73.7109Q311.27 74.0183 310.084 74.3548Q308.897 74.6914 307.719 75.0568Q306.541 75.4223 305.372 75.8166Q304.203 76.2108 303.045 76.6335Q301.886 77.0562 300.738 77.5071Q299.59 77.9581 298.453 78.437Q297.317 78.9159 296.192 79.4225Q295.068 79.9291 293.956 80.4631Q292.844 80.9971 291.746 81.5581Q290.647 82.1191 289.563 82.7069Q288.478 83.2947 287.409 83.9088Q286.339 84.5229 285.285 85.1631Q284.231 85.8032 283.192 86.4689Q282.154 87.1347 281.132 87.8257Q280.111 88.5166 279.106 89.2324Q278.102 89.9482 277.115 90.6884Q276.128 91.4285 275.16 92.1926Q274.192 92.9567 273.243 93.7442Q272.294 94.5318 271.364 95.3424Q270.434 96.1529 269.525 96.986Q268.615 97.8191 267.726 98.6742Q266.837 99.5293 265.97 100.406Q265.102 101.282 264.256 102.18Q263.41 103.078 262.586 103.996Q261.763 104.914 260.962 105.852Q260.161 106.79 259.383 107.747Q258.605 108.704 257.851 109.68C254.491 114.107 251.681 119.008 248.828 123.775C244.146 123.307 239.721 123.604 235.915 126.732C232.477 129.557 231.256 133.095 230.93 137.375C230.205 146.879 230.792 158.266 230.816 167.972C230.89 198.144 230.721 228.466 237.837 257.975Q239.76 265.783 242.462 273.356Q245.165 280.93 248.618 288.192C250.767 292.707 255.272 298.237 256.33 302.96C257.366 307.592 256.786 313.287 256.785 318.05C256.782 325.258 256.916 332.504 256.65 339.706C247.724 347.071 237.325 352.829 227.859 359.483C223.28 363.136 218.019 366.207 213.167 369.507C200.935 377.83 188.669 386.255 175.26 392.601C162.982 398.412 150.205 402.884 138.145 409.205C106.663 425.708 81.4087 451.673 70.6755 486.054C57.0109 453.481 47.9511 420.195 44.8795 384.943C44.1194 376.219 43.4896 367.365 43.7352 358.604C43.8346 337.523 45.6271 311.178 51.4181 290.954C53.4271 283.979 55.1052 276.874 57.0534 269.874Z"/>
	<defs>
		<linearGradient id="gradient_0" gradientUnits="userSpaceOnUse" x1="568.18085" y1="517.07947" x2="565.40967" y2="356.76276">
			<stop offset="0" stop-color="#0888DC"/>
			<stop offset="1" stop-color="#06A5E7"/>
		</linearGradient>
	</defs>
	<path fill="url(#gradient_0)" d="M685.159 349.118C686.202 358.184 685.426 368.166 684.775 377.265C682.282 412.096 675.234 446.138 662.219 478.603Q657.046 491.323 650.978 503.64C648.714 508.166 646.068 512.487 643.905 517.077L643.168 517.321L643.672 517.541L643.597 517.676L643.177 517.47L643.514 517.812L643.19 517.902C642.361 515.15 643.146 511.383 643.245 508.528C643.383 504.543 643.174 500.512 643.05 496.526C642.724 486.057 641.526 476.241 631.234 470.797C623.281 466.59 609.949 468.902 600.875 468.459C601.083 458.026 601.029 448.795 593.397 440.777C589.369 436.546 584.244 434.1 578.345 434.03C574.696 433.986 568.331 434.943 565.025 433.893C561.142 429.442 556.729 425.063 551.253 422.657L551.601 422.372C551.295 421.26 549.205 419.908 548.234 419.101C530.836 404.641 508.507 397.472 489.003 386.506C475.022 378.645 457.058 368.421 444.583 358.585C447.639 357.898 451.765 358.864 454.981 358.847L489.762 358.411L627.353 358.405Q645.045 358.34 662.736 358.48C670.109 358.519 677.698 358.907 685.033 358.137C685.008 355.126 684.959 352.124 685.159 349.118Z"/>
	<defs>
		<linearGradient id="gradient_1" gradientUnits="userSpaceOnUse" x1="132.06754" y1="484.72882" x2="135.1234" y2="356.68573">
			<stop offset="0" stop-color="#0A8ADE"/>
			<stop offset="1" stop-color="#06A6E8"/>
		</linearGradient>
	</defs>
	<path fill="url(#gradient_1)" d="M43.7352 358.604C48.8225 358.848 53.9857 358.375 59.0905 358.415L109.255 358.349C132.516 358.109 155.787 358.6 179.051 358.555L213.19 358.583C217.233 358.622 221.627 358.18 225.616 358.571C226.535 358.661 227.119 358.954 227.859 359.483C223.28 363.136 218.019 366.207 213.167 369.507C200.935 377.83 188.669 386.255 175.26 392.601C162.982 398.412 150.205 402.884 138.145 409.205C106.663 425.708 81.4087 451.673 70.6755 486.054C57.0109 453.481 47.9511 420.195 44.8795 384.943C44.1194 376.219 43.4896 367.365 43.7352 358.604Z"/>
	<path fill="#FEFEFE" d="M57.0534 269.874C70.2421 270.29 83.4983 270.014 96.6935 270.003L163.566 270.029Q175.167 270.089 186.767 269.957C192.022 269.894 197.753 269.457 202.962 270.177C205.376 270.51 207.416 271.286 209.07 273.139C211.051 275.357 212.003 278.595 211.746 281.538Q211.7 282.054 211.604 282.564Q211.507 283.073 211.36 283.57Q211.214 284.068 211.019 284.548Q210.823 285.028 210.582 285.487Q210.34 285.945 210.054 286.378Q209.768 286.81 209.441 287.212Q209.113 287.614 208.748 287.982Q208.382 288.349 207.982 288.679C206.184 290.14 204.215 290.66 201.94 290.827C195.507 291.296 188.816 290.857 182.356 290.844L145.706 290.898L82.9715 290.91C72.4798 290.915 61.8986 291.219 51.4181 290.954C53.4271 283.979 55.1052 276.874 57.0534 269.874Z"/>
	<path fill="#FEFEFE" d="M558.917 201.216C560.85 201.121 562.665 201.353 564.5 201.992C567.039 202.876 569.137 204.47 570.488 206.812C573.8 212.553 574.888 220.287 576.505 226.665C580.106 240.873 584.071 255.172 587.909 269.331C589.475 275.109 590.386 281.771 592.947 287.164C595.112 282.472 597.334 276.363 601.423 273.003C603.18 271.56 605.288 270.77 607.511 270.382C612.004 269.599 616.875 270.094 621.426 270.055C626.318 270.012 631.664 269.47 636.509 270.154C639.561 270.584 642.56 271.744 644.424 274.323C646.946 277.815 646.213 281.916 645.604 285.859C644.044 287.52 642.589 288.939 640.446 289.818C634.611 292.213 622.222 290.746 615.453 291.006C610.023 299.077 602.477 322.148 595.026 325.923C591.674 327.621 587.751 326.591 584.363 325.557C582.665 323.822 581.524 321.868 580.592 319.648C577.727 312.821 576.435 305.46 574.579 298.327C571.943 288.194 569.047 278.121 566.579 267.945C564.895 261 563.633 253.88 561.862 246.979C561.648 246.143 561.535 245.413 560.906 244.813L560.542 245.788C557.726 255.19 545.123 305.148 542.017 309.062C539.807 311.846 536.255 313.456 532.756 313.677C521.069 314.415 515.903 297.687 508.271 291.3C508.164 291.21 508.054 291.124 507.945 291.036C497.788 290.506 487.424 290.869 477.247 290.92C473.599 290.938 469.827 291.234 466.195 290.951C463.108 290.71 460.307 289.587 458.315 287.146C456.421 284.825 455.485 281.869 455.903 278.888C456.292 276.117 457.813 273.732 460.099 272.132C462.127 270.712 464.343 270.393 466.749 270.13C474.213 269.314 482.261 269.996 489.795 270.003C497.848 270.01 508.356 268.955 516.136 270.418C522.571 271.628 526.203 279.526 529.599 284.448C532.539 270.399 537.137 256.594 540.959 242.755L546.671 222.106C547.944 217.546 549.06 212.786 550.888 208.415C552.483 204.602 555.176 202.726 558.917 201.216Z"/>
	<path fill="#FEFEFE" d="M103.554 310.635Q103.882 310.562 104.213 310.505Q104.544 310.448 104.878 310.407Q105.211 310.366 105.547 310.342Q105.882 310.318 106.218 310.31Q106.554 310.303 106.89 310.312Q107.226 310.321 107.561 310.346Q107.896 310.371 108.229 310.413Q108.563 310.455 108.894 310.513Q109.224 310.572 109.552 310.646Q109.88 310.72 110.203 310.811Q110.527 310.901 110.846 311.008Q111.165 311.114 111.478 311.236Q111.791 311.358 112.098 311.495Q112.405 311.632 112.704 311.784Q113.004 311.936 113.296 312.103Q113.588 312.269 113.871 312.45Q114.154 312.631 114.428 312.825Q114.702 313.02 114.966 313.228Q115.23 313.435 115.484 313.656Q115.738 313.876 115.98 314.109Q116.222 314.342 116.453 314.586Q116.684 314.831 116.902 315.086Q117.12 315.342 117.326 315.607Q117.531 315.873 117.724 316.149Q117.916 316.425 118.094 316.709Q118.273 316.994 118.437 317.287Q118.601 317.581 118.751 317.881Q118.9 318.182 119.035 318.49Q119.169 318.798 119.288 319.112Q119.408 319.427 119.511 319.746Q119.615 320.066 119.703 320.39Q119.79 320.715 119.862 321.043Q119.934 321.371 119.989 321.703Q120.045 322.034 120.084 322.368Q120.123 322.702 120.145 323.037Q120.168 323.372 120.174 323.708Q120.18 324.044 120.17 324.38Q120.159 324.716 120.132 325.051Q120.105 325.386 120.062 325.719Q120.018 326.052 119.959 326.383Q119.899 326.714 119.823 327.041Q119.747 327.368 119.655 327.691Q119.563 328.015 119.455 328.333Q119.347 328.651 119.224 328.964Q119.101 329.276 118.962 329.583Q118.824 329.889 118.67 330.188Q118.517 330.487 118.349 330.778Q118.181 331.069 117.999 331.351Q117.817 331.633 117.621 331.907Q117.425 332.18 117.216 332.443Q117.007 332.706 116.785 332.959Q116.564 333.211 116.33 333.452Q116.096 333.694 115.85 333.923Q115.605 334.153 115.349 334.37Q115.092 334.587 114.825 334.791Q114.559 334.996 114.282 335.187Q114.005 335.377 113.72 335.555Q113.434 335.732 113.14 335.894Q112.846 336.057 112.545 336.205Q112.243 336.353 111.934 336.487Q111.626 336.62 111.311 336.737Q110.996 336.855 110.676 336.957Q110.356 337.059 110.031 337.146Q109.707 337.232 109.378 337.302Q109.051 337.372 108.722 337.425Q108.392 337.479 108.06 337.517Q107.728 337.554 107.395 337.575Q107.061 337.596 106.727 337.601Q106.393 337.606 106.06 337.595Q105.726 337.583 105.393 337.555Q105.06 337.527 104.729 337.483Q104.398 337.439 104.069 337.379Q103.741 337.319 103.416 337.243Q103.09 337.167 102.769 337.075Q102.448 336.982 102.132 336.875Q101.816 336.767 101.505 336.644Q101.195 336.521 100.891 336.383Q100.586 336.245 100.289 336.093Q99.9922 335.94 99.703 335.773Q99.4138 335.606 99.1331 335.425Q98.8524 335.244 98.5808 335.049Q98.3093 334.855 98.0476 334.647Q97.7859 334.439 97.5347 334.219Q97.2835 333.999 97.0434 333.767Q96.8032 333.535 96.5747 333.291Q96.3463 333.048 96.1299 332.793Q95.9136 332.539 95.71 332.274Q95.5064 332.009 95.316 331.735Q95.1256 331.46 94.9489 331.177Q94.7722 330.893 94.6095 330.602Q94.4468 330.31 94.2986 330.01Q94.1504 329.711 94.017 329.405Q93.8837 329.099 93.7654 328.786Q93.6472 328.474 93.5444 328.156Q93.4416 327.838 93.3544 327.516Q93.2673 327.193 93.196 326.867Q93.1247 326.541 93.0695 326.211Q93.0142 325.882 92.9752 325.55Q92.9361 325.218 92.9133 324.885Q92.8905 324.552 92.8841 324.218Q92.8776 323.884 92.8875 323.55Q92.8974 323.216 92.9237 322.883Q92.9499 322.55 92.9923 322.219Q93.0348 321.888 93.0935 321.559Q93.1521 321.23 93.2267 320.904Q93.3014 320.579 93.3919 320.257Q93.4824 319.936 93.5885 319.619Q93.6946 319.302 93.8161 318.991Q93.9376 318.68 94.0741 318.375Q94.2107 318.07 94.362 317.772Q94.5133 317.475 94.679 317.185Q94.8447 316.894 95.0244 316.613Q95.204 316.331 95.3973 316.059Q95.5905 315.786 95.7969 315.524Q96.0032 315.261 96.2222 315.009Q96.4411 314.757 96.6721 314.515Q96.9032 314.274 97.1457 314.044Q97.3883 313.815 97.6418 313.597Q97.8952 313.38 98.1591 313.175Q98.4229 312.97 98.6965 312.778Q98.97 312.586 99.2526 312.408Q99.5352 312.23 99.8261 312.066Q100.117 311.902 100.416 311.753Q100.714 311.603 101.02 311.468Q101.326 311.333 101.637 311.214Q101.949 311.094 102.267 310.99Q102.584 310.885 102.906 310.797Q103.228 310.708 103.554 310.635Z"/>
	<path fill="#FEFEFE" d="M228.093 390.538L233.005 388.065L325.912 595.771L350.016 651.741C353.653 660.222 358.514 668.82 360.961 677.711C333.648 678.067 305.679 673.449 279.465 665.957Q276.573 665.16 273.697 664.31Q270.82 663.459 267.96 662.554Q265.1 661.65 262.258 660.692Q259.415 659.734 256.591 658.723Q253.767 657.711 250.963 656.647Q248.158 655.583 245.374 654.467Q242.59 653.351 239.827 652.182Q237.064 651.014 234.324 649.794Q231.583 648.574 228.866 647.303Q226.149 646.032 223.457 644.71Q220.764 643.388 218.097 642.016Q215.429 640.644 212.788 639.223Q210.147 637.801 207.533 636.329Q204.919 634.858 202.332 633.339Q199.746 631.819 197.189 630.25Q194.632 628.682 192.105 627.067Q189.578 625.451 187.081 623.788Q184.585 622.125 182.12 620.416Q179.655 618.706 177.222 616.951Q174.79 615.196 172.391 613.395Q169.992 611.594 167.627 609.749Q165.262 607.904 162.932 606.015Q160.602 604.125 158.308 602.193Q156.014 600.26 153.757 598.285Q151.5 596.309 149.28 594.292Q147.06 592.275 144.878 590.216Q142.696 588.158 140.553 586.059Q138.411 583.959 136.308 581.821Q134.205 579.682 132.142 577.504Q130.079 575.326 128.058 573.109Q126.037 570.893 124.057 568.639Q122.078 566.385 120.141 564.095Q111.228 553.629 103.365 542.354Q95.5025 531.078 88.7623 519.098C89.1394 510.996 90.6589 502.587 92.9914 494.84C95.8107 485.476 100.369 476.77 105.874 468.716C126.706 438.238 154.247 429.087 185.975 414.361C192.067 411.534 197.974 408.181 203.902 405.023C203.373 436.345 203.894 467.723 203.901 499.048C197.895 500.445 192.175 503.56 187.361 507.361C176.358 516.051 169.262 528.259 167.667 542.227C165.885 557.842 170.772 571.243 180.438 583.395C190.442 593.72 203.385 600.179 217.932 600.37C232.804 600.566 244.389 594.935 255.108 585.016C262.89 576.736 267.751 566.864 269.243 555.57C271.081 541.665 267.539 527.706 258.885 516.618C251.541 507.21 240.436 499.445 228.372 497.912C227.918 491.74 228.046 485.493 228.031 479.307L228.036 450.262C228.051 430.387 227.515 410.399 228.093 390.538Z"/>
	<path fill="#CEE1F3" d="M180.438 583.395C190.442 593.72 203.385 600.179 217.932 600.37C232.804 600.566 244.389 594.935 255.108 585.016C254.342 590.193 249.18 596.875 245.505 600.475C238.095 607.735 227.709 611.323 217.421 611.205C207.098 611.086 197.302 607.493 190.039 600.005C186.732 596.596 180.346 588.219 180.438 583.395Z"/>
	<path fill="#FEFEFE" d="M432.414 493.157C452.269 492.911 472.169 493.2 492.029 493.197L617.928 493.2C617.808 513.408 618.293 533.647 617.932 553.849C614.15 559.263 609.576 564.442 605.223 569.417C591.322 585.305 576.408 599.216 559.741 612.188C524.867 640.332 476.641 662.1 432.702 670.55Q432.286 642.155 432.424 613.757L432.414 493.157Z"/>
	<path fill="#05BDF2" d="M509.715 523.287Q510.734 523.234 511.754 523.193C516.754 522.995 530.941 521.715 534.579 525.324C535.595 526.331 536.13 527.644 536.376 529.035C536.984 532.483 536.374 536.763 536.345 540.315C536.297 546.13 536.479 551.953 536.608 557.766C542.84 557.95 549.108 557.757 555.342 557.637C558.367 557.579 561.689 557.257 564.678 557.654C566.321 557.871 567.997 558.375 569.375 559.318C571.233 560.589 571.773 562.61 572.075 564.743C572.66 568.865 572.924 586.74 570.539 589.486C569.308 590.902 567.218 591.569 565.431 591.872C561.694 592.508 557.336 591.978 553.546 591.889Q544.939 591.63 536.331 591.838C536.323 597.546 537.446 616.261 535.912 620.516C535.075 622.838 533.001 623.635 530.935 624.596C524.215 625.416 515.688 624.819 508.822 624.57C508.022 624.077 507.108 623.575 506.444 622.904C505.109 621.555 504.517 619.096 504.242 617.29C503.337 611.341 504.033 598.554 503.978 591.988C497.324 591.365 490.44 591.705 483.764 591.785C480.892 591.819 477.714 592.077 474.885 591.612C473.01 591.304 470.345 590.53 469.268 588.801C467.155 585.413 467.215 568.379 468.145 564.283C468.855 561.157 470.522 559.62 473.094 557.919C481.834 556.939 494.803 557.815 504.046 557.744C504.167 552.25 503.217 530.928 504.7 527.362C505.624 525.138 507.637 524.211 509.715 523.287Z"/>
	<path fill="#FEFEFE" d="M261.883 166.624C295.298 185.264 331.115 194.145 368.863 183.49C386.323 178.562 398.108 170.166 412.662 160.072C411.816 208.326 420.936 267.425 382.395 304.714C380.038 306.994 377.474 309.398 374.714 311.181C361.354 321.151 345.024 326.456 328.336 324.186C309.338 321.603 292.61 310.829 281.105 295.65C257.142 264.035 254.572 217.004 259.877 179.171C260.365 174.962 261.164 170.798 261.883 166.624Z"/>
	<path fill="#CEE1F3" d="M261.883 166.624C295.298 185.264 331.115 194.145 368.863 183.49C386.323 178.562 398.108 170.166 412.662 160.072C411.816 208.326 420.936 267.425 382.395 304.714C380.038 306.994 377.474 309.398 374.714 311.181C374.279 307.654 380.106 301.877 382.15 299.034C406.814 264.727 410.646 223.872 403.991 183.25C397.986 187.536 391.188 191.157 384.501 194.262C353.558 208.633 314.436 208.015 283.679 193.164C279.158 190.981 274.674 188.444 270.431 185.76C267.694 184.029 263.126 180.238 260.325 179.309C260.176 179.26 260.026 179.217 259.877 179.171C260.365 174.962 261.164 170.798 261.883 166.624Z"/>
	<path fill="#FEFEFE" d="M440.167 387.127C448.419 393.023 498.627 421.423 506.181 422.241C509.637 422.616 513.375 422.296 516.852 422.245C528.032 422.082 540.173 421.097 551.253 422.657C556.729 425.063 561.142 429.442 565.025 433.893L512.178 433.935C503.564 433.948 491.696 433.08 483.551 434.867C479.231 435.815 475.02 438.141 471.896 441.265C463.645 449.518 465.79 458 464.642 468.382C456.216 469.105 447.638 468.714 439.188 468.669C433.836 468.64 427.908 468.088 422.716 469.661C418.936 470.807 415.799 473.015 413.29 476.028C410.749 479.081 409.118 482.643 408.559 486.588C407.743 492.35 408.1 498.555 408.075 504.373L408.08 537.08L407.987 629.122C407.951 644.48 408.681 660.066 407.817 675.387C403.655 675.773 399.414 676.312 395.233 676.344C391.44 676.601 387.639 676.813 383.863 677.27C381.805 670.449 378.609 663.759 375.879 657.18L363.765 627.648C360.198 619.161 356.338 610.72 353.45 601.97C354.902 596.747 357.214 591.622 359.209 586.585Q365.17 571.616 371.346 556.735C379.209 537.422 386.153 517.56 395.16 498.735C398.168 489.71 402.062 480.974 405.724 472.204L416.107 446.689C424.245 426.888 431.77 406.819 440.167 387.127Z"/>
	<path fill="#6784B5" d="M395.16 498.735L395.233 676.344C391.44 676.601 387.639 676.813 383.863 677.27C381.805 670.449 378.609 663.759 375.879 657.18L363.765 627.648C360.198 619.161 356.338 610.72 353.45 601.97C354.902 596.747 357.214 591.622 359.209 586.585Q365.17 571.616 371.346 556.735C379.209 537.422 386.153 517.56 395.16 498.735Z"/>
	<path fill="#6784B5" d="M291.548 110.059C295.314 107.481 299.061 104.997 303.201 103.039C320.431 94.8901 341.85 93.0651 360.578 96.5503Q362.635 96.9411 364.663 97.4593Q366.692 97.9775 368.684 98.6211Q370.677 99.2646 372.625 100.031Q374.573 100.797 376.47 101.684Q378.367 102.57 380.205 103.573Q382.043 104.576 383.815 105.691Q385.587 106.806 387.286 108.03Q388.985 109.253 390.604 110.58C394.519 113.432 398.226 117.342 401.124 121.225C404.049 124.891 406.498 129.281 408.086 133.694C396.63 145.508 378.942 155.129 363.221 159.425C356.039 161.387 347.961 162.452 340.504 162.584C333.571 162.707 326.111 162.008 319.326 160.551C304.779 162.279 280.45 149.034 267.906 141.687C269.271 138.338 270.807 135.132 272.773 132.091C274.897 128.158 277.136 124.216 280.065 120.822C283.372 116.734 287.182 113.01 291.548 110.059Z"/>
	<path fill="#4669A6" d="M280.065 120.822C281.299 122.602 283.957 124.075 285.736 125.329C296.046 132.592 305.555 136.764 317.629 140.446C320.898 141.442 324.218 142.572 327.588 143.173C351.186 147.381 374.713 141.552 394.206 127.804C396.593 126.121 399.763 123.862 401.124 121.225C404.049 124.891 406.498 129.281 408.086 133.694C396.63 145.508 378.942 155.129 363.221 159.425C356.039 161.387 347.961 162.452 340.504 162.584C333.571 162.707 326.111 162.008 319.326 160.551C304.779 162.279 280.45 149.034 267.906 141.687C269.271 138.338 270.807 135.132 272.773 132.091C274.897 128.158 277.136 124.216 280.065 120.822Z"/>
	<path fill="#2B4D8F" d="M267.906 141.687C269.271 138.338 270.807 135.132 272.773 132.091C278.545 140.549 296.358 150.431 305.837 154.752C310.283 156.778 314.979 158.333 319.326 160.551C304.779 162.279 280.45 149.034 267.906 141.687Z"/>
	<path fill="#8EA5C7" d="M291.548 110.059C295.314 107.481 299.061 104.997 303.201 103.039C320.431 94.8901 341.85 93.0651 360.578 96.5503Q362.635 96.9411 364.663 97.4593Q366.692 97.9775 368.684 98.6211Q370.677 99.2646 372.625 100.031Q374.573 100.797 376.47 101.684Q378.367 102.57 380.205 103.573Q382.043 104.576 383.815 105.691Q385.587 106.806 387.286 108.03Q388.985 109.253 390.604 110.58C387.075 115.203 369.765 120.077 363.581 121.544C344.676 126.029 321.815 123.977 303.758 116.569C299.45 114.802 295.503 112.486 291.548 110.059Z"/>
	<path fill="#05DDF8" d="M408.749 366.902C411.139 367.037 417.656 371.797 420.124 373.158C416.758 382.685 412.831 391.868 409.056 401.228Q398.348 428.035 387.105 454.622L372.747 488.936C370.018 495.455 367.493 502.206 364.339 508.528C363.776 505.8 363.593 502.943 363.286 500.173C362.649 494.495 361.383 488.849 360.323 483.238C358.787 475.108 357.496 466.94 356.103 458.784C355.139 453.137 353.926 447.452 353.395 441.748C354.004 440.985 354.694 440.291 355.353 439.57C360.549 433.891 364.889 427.347 364.381 419.282C363.912 411.835 359.314 406.193 353.966 401.451C365.474 394.006 377.223 386.907 388.831 379.617C395.484 375.438 401.998 370.893 408.749 366.902Z"/>
	<path fill="#05DDF8" d="M263.498 366.456C269.172 369.633 274.616 373.25 280.127 376.702L304.268 391.691C309.504 394.944 314.708 398.374 320.164 401.246C317.448 403.764 315.176 406.313 313.134 409.403C310.881 414.033 310.049 417.935 310.05 423.083C311.198 429.185 313.211 434.157 317.827 438.488C319.181 439.759 321.065 440.793 320.493 442.888Q315.406 473.844 311.038 504.91C306.208 495.441 302.165 485.469 297.928 475.72C293.417 465.338 288.667 455.031 284.043 444.696C279.76 435.122 275.584 425.473 271.191 415.951C265.391 403.38 259.333 390.843 254.218 377.975L252.418 373.942C256.008 371.448 259.668 368.529 263.498 366.456Z"/>
	<path fill="#05BDF2" d="M263.498 366.456C269.172 369.633 274.616 373.25 280.127 376.702L304.268 391.691C309.504 394.944 314.708 398.374 320.164 401.246C317.448 403.764 315.176 406.313 313.134 409.403C312.234 409.358 311.465 409.178 310.634 408.82C303.829 405.886 297.4 401.177 291.058 397.351C285.648 394.086 280.012 391.216 274.601 387.938C269.44 384.81 264.086 380.758 258.432 378.618C257.12 378.122 255.607 378.075 254.218 377.975L252.418 373.942C256.008 371.448 259.668 368.529 263.498 366.456Z"/>
	<path fill="#05BDF2" d="M310.05 423.083C311.198 429.185 313.211 434.157 317.827 438.488C319.181 439.759 321.065 440.793 320.493 442.888L319.992 442.54L318.703 442.521C318.23 442.517 317.623 442.569 317.171 442.413C315.497 441.835 313.933 439.959 313.007 438.52C310.95 435.325 308.869 429.943 309.666 426.157C309.882 425.128 309.97 424.13 310.05 423.083Z"/>
	<path fill="#CEE1F3" d="M393.432 326.926C393.484 333.793 393.645 340.676 393.552 347.541C389.068 350.863 382.883 355.068 377.911 357.53C372.035 361.451 365.942 365.088 359.943 368.823C352.435 373.497 344.834 378.344 337.001 382.448C327.976 377.576 319.167 372.169 310.384 366.867C304.855 363.529 299.108 360.347 293.829 356.631C288.844 353.655 283.631 350.576 279.094 346.945C278.946 340.578 279.29 334.204 279.124 327.851C300.427 343.796 321.692 351.794 348.808 347.986C363.738 345.889 382.329 337.459 393.432 326.926Z"/>
	<path fill="#FEFEFE" d="M293.829 356.631L293.649 356.204C293.44 355.72 293.571 355.867 293.331 355.653C293.88 355.201 293.935 355.103 294.641 355.232C298.649 355.962 303.083 358.484 307.04 359.737C320.253 363.921 335.867 365.333 349.535 363.323C352.677 362.86 355.95 362.348 358.997 361.451C362.69 360.364 372.784 356.291 375.789 356.197C376.944 356.161 377.353 356.558 377.911 357.53C372.035 361.451 365.942 365.088 359.943 368.823C352.435 373.497 344.834 378.344 337.001 382.448C327.976 377.576 319.167 372.169 310.384 366.867C304.855 363.529 299.108 360.347 293.829 356.631Z"/>
	<path fill="#FEFEFE" d="M215.492 520.556Q216.183 520.477 216.878 520.432Q217.572 520.386 218.268 520.375Q218.964 520.365 219.66 520.388Q220.355 520.411 221.049 520.468Q221.742 520.526 222.432 520.617Q223.122 520.708 223.807 520.833Q224.492 520.959 225.169 521.117Q225.847 521.276 226.516 521.468Q227.185 521.66 227.844 521.884Q228.502 522.108 229.149 522.365Q229.796 522.621 230.43 522.909Q231.064 523.197 231.682 523.516Q232.301 523.835 232.903 524.184Q233.505 524.532 234.09 524.91Q234.674 525.288 235.239 525.694Q235.804 526.101 236.349 526.534Q236.893 526.968 237.416 527.427Q237.938 527.887 238.438 528.372Q238.937 528.857 239.412 529.365Q239.887 529.874 240.336 530.406Q240.785 530.937 241.208 531.49Q241.631 532.043 242.026 532.616Q242.421 533.189 242.787 533.781Q243.153 534.373 243.49 534.982Q243.827 535.591 244.133 536.216Q244.44 536.84 244.715 537.48Q244.991 538.119 245.234 538.771Q245.478 539.423 245.689 540.086Q245.901 540.749 246.079 541.421Q246.258 542.094 246.403 542.775Q246.548 543.455 246.66 544.142Q246.771 544.829 246.849 545.521Q246.927 546.213 246.97 546.907Q247.014 547.602 247.023 548.298Q247.033 548.993 247.008 549.689Q246.983 550.384 246.925 551.078Q246.866 551.771 246.773 552.461Q246.68 553.151 246.553 553.835Q246.427 554.519 246.267 555.197Q246.106 555.874 245.913 556.542Q245.72 557.211 245.494 557.869Q245.268 558.528 245.01 559.174Q244.753 559.82 244.463 560.453Q244.174 561.086 243.854 561.704Q243.534 562.322 243.184 562.924Q242.834 563.525 242.454 564.109Q242.075 564.692 241.668 565.256Q241.26 565.821 240.826 566.364Q240.391 566.908 239.93 567.429Q239.469 567.951 238.983 568.449Q238.498 568.947 237.988 569.421Q237.478 569.895 236.946 570.343Q236.413 570.791 235.859 571.212Q235.305 571.634 234.732 572.027Q234.158 572.421 233.565 572.786Q232.973 573.151 232.363 573.487Q231.753 573.822 231.128 574.127Q230.502 574.432 229.863 574.707Q229.223 574.981 228.57 575.223Q227.918 575.465 227.255 575.675Q226.591 575.885 225.918 576.062Q225.245 576.239 224.564 576.383Q223.883 576.526 223.196 576.637Q222.509 576.747 221.817 576.823Q221.127 576.899 220.434 576.941Q219.742 576.983 219.048 576.991Q218.354 577 217.66 576.974Q216.967 576.948 216.275 576.888Q215.584 576.828 214.896 576.734Q214.208 576.641 213.526 576.514Q212.844 576.386 212.169 576.226Q211.493 576.065 210.827 575.872Q210.16 575.679 209.504 575.453Q208.848 575.227 208.203 574.969Q207.559 574.712 206.928 574.423Q206.297 574.134 205.681 573.814Q205.065 573.495 204.465 573.145Q203.865 572.796 203.283 572.417Q202.702 572.039 202.139 571.633Q201.576 571.226 201.034 570.793Q200.492 570.36 199.972 569.9Q199.452 569.441 198.955 568.956Q198.458 568.472 197.985 567.964Q197.513 567.455 197.065 566.925Q196.618 566.394 196.198 565.842Q195.777 565.29 195.384 564.718Q194.991 564.146 194.626 563.555Q194.261 562.965 193.926 562.357Q193.591 561.749 193.286 561.126Q192.981 560.503 192.707 559.865Q192.433 559.227 192.19 558.577Q191.948 557.927 191.737 557.266Q191.527 556.604 191.349 555.933Q191.171 555.262 191.027 554.583Q190.882 553.905 190.771 553.22Q190.66 552.535 190.582 551.845Q190.504 551.155 190.461 550.463Q190.417 549.77 190.408 549.076Q190.398 548.382 190.422 547.688Q190.447 546.995 190.505 546.303Q190.563 545.612 190.655 544.924Q190.748 544.236 190.873 543.553Q190.999 542.871 191.158 542.195Q191.317 541.52 191.509 540.853Q191.701 540.186 191.925 539.529Q192.15 538.872 192.406 538.227Q192.662 537.582 192.95 536.951Q193.238 536.319 193.556 535.702Q193.874 535.086 194.222 534.485Q194.57 533.885 194.947 533.302Q195.324 532.719 195.729 532.156Q196.135 531.592 196.567 531.049Q196.999 530.506 197.457 529.985Q197.916 529.464 198.399 528.966Q198.883 528.468 199.39 527.994Q199.897 527.521 200.427 527.072Q200.956 526.624 201.507 526.202Q202.059 525.78 202.63 525.386Q203.201 524.991 203.791 524.626Q204.38 524.26 204.987 523.923Q205.594 523.587 206.217 523.28Q206.84 522.974 207.477 522.698Q208.114 522.423 208.763 522.179Q209.413 521.935 210.074 521.723Q210.735 521.511 211.405 521.332Q212.076 521.153 212.754 521.007Q213.433 520.86 214.118 520.748Q214.802 520.635 215.492 520.556Z"/>
	<path fill="#05DDF8" d="M217.827 533.733Q218.193 533.714 218.56 533.713Q218.927 533.712 219.294 533.729Q219.66 533.746 220.025 533.781Q220.391 533.815 220.754 533.868Q221.117 533.92 221.477 533.99Q221.837 534.06 222.194 534.148Q222.55 534.236 222.901 534.34Q223.253 534.445 223.599 534.567Q223.945 534.689 224.285 534.827Q224.625 534.966 224.957 535.121Q225.29 535.276 225.614 535.447Q225.939 535.618 226.255 535.804Q226.571 535.991 226.877 536.193Q227.184 536.395 227.48 536.611Q227.776 536.827 228.062 537.058Q228.347 537.289 228.621 537.533Q228.895 537.777 229.156 538.034Q229.418 538.292 229.666 538.561Q229.915 538.831 230.15 539.113Q230.386 539.394 230.607 539.687Q230.828 539.98 231.035 540.283Q231.242 540.586 231.433 540.899Q231.625 541.211 231.801 541.533Q231.978 541.855 232.138 542.185Q232.298 542.515 232.443 542.852Q232.587 543.19 232.714 543.534Q232.842 543.878 232.952 544.228Q233.063 544.578 233.156 544.932Q233.25 545.287 233.326 545.646Q233.402 546.005 233.46 546.367Q233.519 546.729 233.559 547.094Q233.6 547.459 233.623 547.825Q233.646 548.191 233.651 548.558Q233.656 548.925 233.643 549.292Q233.63 549.658 233.6 550.024Q233.569 550.39 233.52 550.753Q233.472 551.117 233.406 551.478Q233.34 551.839 233.256 552.196Q233.172 552.553 233.071 552.906Q232.97 553.259 232.852 553.606Q232.734 553.953 232.599 554.295Q232.465 554.636 232.313 554.97Q232.162 555.304 231.995 555.631Q231.827 555.957 231.644 556.275Q231.461 556.593 231.263 556.902Q231.064 557.211 230.851 557.509Q230.638 557.808 230.41 558.096Q230.183 558.384 229.942 558.66Q229.7 558.937 229.446 559.201Q229.192 559.465 228.925 559.717Q228.658 559.969 228.379 560.207Q228.1 560.445 227.81 560.67Q227.519 560.894 227.218 561.104Q226.918 561.314 226.607 561.51Q226.296 561.705 225.976 561.885Q225.657 562.064 225.328 562.228Q225 562.392 224.664 562.54Q224.329 562.688 223.986 562.819Q223.643 562.951 223.295 563.065Q222.946 563.179 222.592 563.277Q222.239 563.374 221.88 563.454Q221.522 563.534 221.161 563.596Q220.799 563.659 220.435 563.703Q220.071 563.748 219.705 563.775Q219.21 563.812 218.714 563.815Q218.218 563.819 217.722 563.79Q217.227 563.761 216.735 563.7Q216.242 563.638 215.755 563.544Q215.268 563.451 214.788 563.325Q214.308 563.199 213.837 563.042Q213.367 562.885 212.907 562.698Q212.448 562.51 212.002 562.292Q211.556 562.075 211.125 561.829Q210.695 561.582 210.281 561.308Q209.868 561.034 209.473 560.733Q209.078 560.432 208.705 560.106Q208.331 559.779 207.979 559.429Q207.628 559.079 207.3 558.707Q206.972 558.334 206.669 557.941Q206.367 557.547 206.091 557.135Q205.815 556.723 205.567 556.293Q205.319 555.863 205.099 555.418Q204.88 554.973 204.69 554.515Q204.501 554.056 204.342 553.586Q204.183 553.116 204.055 552.636Q203.928 552.157 203.832 551.67Q203.736 551.183 203.673 550.691Q203.609 550.199 203.578 549.704Q203.547 549.208 203.549 548.712Q203.551 548.216 203.585 547.721Q203.619 547.226 203.686 546.734Q203.753 546.243 203.852 545.756Q203.952 545.27 204.083 544.792Q204.214 544.313 204.376 543.844Q204.538 543.375 204.731 542.918Q204.924 542.461 205.146 542.017Q205.368 541.574 205.62 541.146Q205.871 540.718 206.15 540.307Q206.428 539.897 206.734 539.506Q207.039 539.114 207.369 538.744Q207.7 538.374 208.054 538.026Q208.408 537.679 208.784 537.355Q209.16 537.031 209.556 536.733Q209.953 536.435 210.368 536.164Q210.784 535.892 211.216 535.649Q211.649 535.405 212.096 535.191Q212.544 534.977 213.004 534.792Q213.465 534.608 213.937 534.454Q214.408 534.3 214.889 534.178Q215.37 534.055 215.858 533.965Q216.346 533.875 216.839 533.817Q217.331 533.759 217.827 533.733Z"/>
	<path fill="#FEFEFE" d="M494.562 457.905C499.494 457.572 504.524 457.745 509.467 457.756L534.516 457.81L556.84 457.752C560.705 457.721 564.638 457.435 568.494 457.637C570.198 457.727 572.057 457.945 573.574 458.785C574.929 459.536 575.956 460.752 576.344 462.262C576.733 463.776 576.418 465.499 575.57 466.806C574.49 468.469 573.228 468.696 571.39 469.032C558.557 469.488 545.578 469.013 532.729 469.023C520.503 469.033 508.109 469.543 495.904 469.068C494.526 469.014 492.889 469.014 491.637 468.393C490.574 467.865 489.826 467.032 489.485 465.888C488.99 464.229 489.416 462.418 490.21 460.924C491.175 459.108 492.672 458.457 494.562 457.905Z"/>
</svg>
